<svg id="Layer_1" data-name="Layer 1" xmlns="http://www.w3.org/2000/svg" viewBox="0 0 175 34"><defs><style>.cls-1{fill:none;stroke:#fff;stroke-miterlimit:10;}</style></defs><title>controls</title><path class="cls-1" d="M721.31,353.23h13.54m-4.94-6,5.16,6-5.16,6" transform="translate(-570.19 -342.5)"/><rect class="cls-1" x="141.5" y="0.5" width="33" height="33" rx="3" ry="3"/><path class="cls-1" d="M649.53,353.23h13.54m-8.59,6-5.16-6,5.16-6" transform="translate(-570.19 -342.5)"/><rect class="cls-1" x="639.69" y="343" width="33" height="33" rx="3" ry="3" transform="translate(742.19 376.5) rotate(-180)"/><path class="cls-1" d="M601.85,359.23l-5.16-6,5.16-6m-5.16,6h14v-6.5" transform="translate(-570.19 -342.5)"/><rect class="cls-1" x="570.69" y="343" width="66" height="33" rx="3" ry="3" transform="translate(637.19 376.5) rotate(-180)"/><path class="cls-1" d="M692.19,360.1V346.56m-6,4.94,6-5.16,6,5.16" transform="translate(-570.19 -342.5)"/><rect class="cls-1" x="105.5" y="0.5" width="33" height="33" rx="3" ry="3"/></svg>